<svg xmlns="http://www.w3.org/2000/svg" viewBox="0 0 64 64" fill="none">
  <defs>
    <linearGradient id="shrimpGrad" x1="0%" y1="0%" x2="100%" y2="100%">
      <stop offset="0%" style="stop-color:#f97316;stop-opacity:1" />
      <stop offset="100%" style="stop-color:#ea580c;stop-opacity:1" />
    </linearGradient>
    <linearGradient id="coralGrad" x1="0%" y1="0%" x2="100%" y2="100%">
      <stop offset="0%" style="stop-color:#fbbf24;stop-opacity:1" />
      <stop offset="100%" style="stop-color:#f59e0b;stop-opacity:1" />
    </linearGradient>
  </defs>
  <rect width="64" height="64" rx="16" fill="url(#shrimpGrad)"/>
  <!-- Shrimp body -->
  <ellipse cx="32" cy="28" rx="14" ry="10" fill="url(#coralGrad)"/>
  <!-- Shrimp tail segments -->
  <ellipse cx="32" cy="38" rx="10" ry="6" fill="#fcd34d"/>
  <ellipse cx="32" cy="46" rx="8" ry="5" fill="#fde68a"/>
  <ellipse cx="32" cy="52" rx="6" ry="4" fill="#fef3c7"/>
  <!-- Tail fan -->
  <path d="M26 54 L32 58 L38 54" stroke="#fbbf24" stroke-width="2" fill="none" stroke-linecap="round"/>
  <!-- Eyes -->
  <circle cx="26" cy="24" r="3" fill="#1e293b"/>
  <circle cx="38" cy="24" r="3" fill="#1e293b"/>
  <circle cx="26.5" cy="23.5" r="1" fill="white"/>
  <circle cx="38.5" cy="23.5" r="1" fill="white"/>
  <!-- Antennae -->
  <path d="M24 20 Q20 12 16 10" stroke="#fbbf24" stroke-width="2" fill="none" stroke-linecap="round"/>
  <path d="M40 20 Q44 12 48 10" stroke="#fbbf24" stroke-width="2" fill="none" stroke-linecap="round"/>
  <!-- Legs -->
  <path d="M22 32 L18 38" stroke="#f59e0b" stroke-width="2" stroke-linecap="round"/>
  <path d="M26 34 L24 40" stroke="#f59e0b" stroke-width="2" stroke-linecap="round"/>
  <path d="M42 32 L46 38" stroke="#f59e0b" stroke-width="2" stroke-linecap="round"/>
  <path d="M38 34 L40 40" stroke="#f59e0b" stroke-width="2" stroke-linecap="round"/>
</svg>

